<svg xmlns="http://www.w3.org/2000/svg" version="1.1" xmlns:xlink="http://www.w3.org/1999/xlink" width="512" height="512" x="0" y="0" viewBox="0 0 24 24" style="enable-background:new 0 0 512 512" xml:space="preserve" fill-rule="evenodd" class=""><g><path d="M17.75 9V3c0-.464-.184-.909-.513-1.237A1.746 1.746 0 0 0 16 1.25H4c-.729 0-1.429.29-1.945.805A2.755 2.755 0 0 0 1.25 4v15.5a.75.75 0 0 0 1.5 0V4A1.252 1.252 0 0 1 4 2.75h12a.25.25 0 0 1 .25.25v6a.75.75 0 0 0 1.5 0z" fill="#ffffff" opacity="1" data-original="#000000" class=""></path><path d="M9 16.75H4.25a3 3 0 1 0 0 6H13a.75.75 0 0 0 0-1.5H4.25a1.503 1.503 0 0 1-1.5-1.5 1.5 1.5 0 0 1 1.5-1.5H9a.75.75 0 0 0 0-1.5zM6 6.75h7a.75.75 0 0 0 0-1.5H6a.75.75 0 0 0 0 1.5z" fill="#ffffff" opacity="1" data-original="#000000" class=""></path><path d="M16 10.75c-2.898 0-5.25 2.352-5.25 5.25s2.352 5.25 5.25 5.25 5.25-2.352 5.25-5.25-2.352-5.25-5.25-5.25zm0 1.5c2.07 0 3.75 1.68 3.75 3.75s-1.68 3.75-3.75 3.75-3.75-1.68-3.75-3.75 1.68-3.75 3.75-3.75z" fill="#ffffff" opacity="1" data-original="#000000" class=""></path><path d="m22.53 21.47-2.5-2.5a.749.749 0 1 0-1.06 1.06l2.5 2.5a.749.749 0 1 0 1.06-1.06z" fill="#ffffff" opacity="1" data-original="#000000" class=""></path></g></svg>